<svg width="205" height="401" viewBox="0 0 205 401" fill="none" xmlns="http://www.w3.org/2000/svg">
<path d="M24.2417 388.353C26.186 384.061 25.2207 376.882 25.4663 371.337C25.6403 367.393 26.0325 357.003 26.5272 353.854L17.798 363.442C17.4671 366.11 17.0543 376.923 17.6956 387.316L24.2417 388.353Z" fill="#FF9A72"/>
<path d="M23.921 379.079C26.1041 375.923 28.0826 382.096 28.5772 383.518C29.164 385.211 32.2988 385.798 33.4143 386.886C35.3757 388.804 38.9028 389.244 37.2655 393.707C30.0816 394.413 21.042 394.246 16.4778 392.826C14.513 392.216 15.7069 387.074 16.9929 382.102C17.6513 379.564 19.7389 385.119 23.921 379.079Z" fill="white"/>
<path d="M48.0959 211.791C46.885 213.916 44.7223 215.469 44.4801 218.509C42.7609 240.066 37.9545 289.561 34.2705 326.94C31.753 352.486 29.7575 372.371 29.6279 373.818C28.6591 374.685 22.4849 373.593 21.1989 373.548C20.2403 373.518 15.509 374.043 14.7893 373.344C14.3492 368.424 10.1876 223.723 10.0068 212.231C10.0034 212.088 10.0034 211.934 10 211.784H48.0959V211.791Z" fill="#006B6B"/>
<path d="M67.1337 388.585C68.9655 384.242 67.8126 377.09 67.9081 371.542C67.9763 367.594 68.0957 357.198 68.505 354.038L60.0317 363.855C59.769 366.53 59.6428 377.353 60.557 387.725L67.1337 388.585Z" fill="#FF9A72"/>
<path d="M66.5675 379.322C68.6688 376.111 70.8076 382.225 71.3397 383.638C71.9708 385.313 75.1227 385.818 76.262 386.876C78.2746 388.739 81.812 389.087 80.2906 393.594C73.1272 394.488 64.0842 394.56 59.4893 393.263C57.5108 392.704 58.5683 387.531 59.7213 382.529C60.3114 379.973 62.5457 385.47 66.5675 379.322Z" fill="white"/>
<path d="M71.6467 334.286C70.7086 355.052 69.9957 370.754 69.9957 373.439L55.1742 374.302C51.7494 355.43 45.9265 272.388 43.4193 235.757C42.7609 226.155 42.3345 219.747 42.239 218.509C42.1435 217.243 42.7643 212.159 42.6859 210.897C42.4539 207.068 39.1519 209.054 39.3702 205.318C39.5237 202.704 40.9291 199.692 41.1952 197.02C41.2668 196.317 41.26 195.641 41.1304 195L42.5324 195.505L46.3563 196.88L75.8117 207.758C77.0022 215.08 73.7548 287.524 71.6467 334.286Z" fill="#006B6B"/>
<path d="M71.6467 334.286C70.7087 355.052 69.9957 370.754 69.9957 373.439L55.1742 374.302C51.7494 355.431 45.9265 272.388 43.4193 235.757C45.6468 229.984 44.1459 221.453 47.0624 216.305C48.4883 235.033 50.0677 253.748 52.111 272.576C53.3833 284.324 54.9252 295.962 57.0333 307.505C58.5308 315.694 59.6053 325.524 65.9637 331.795C67.9797 333.774 69.8184 334.371 71.6467 334.286Z" fill="#00504E"/>
<path d="M34.2705 326.943C31.753 352.489 29.7575 372.375 29.6279 373.821C28.6591 374.688 22.4849 373.596 21.1989 373.552C20.2403 373.521 15.509 374.047 14.7893 373.347C14.3492 368.427 10.1876 223.726 10.0068 212.234C10.0034 212.091 10.0034 211.937 10 211.787H21.8333C18.6712 229.301 16.5563 247.119 16.5563 265.336C16.5563 275.33 16.6518 285.378 17.1532 295.188C17.6206 304.318 15.3555 316.844 21.1818 324.473C24.1495 328.359 29.8121 328.967 34.2705 326.943Z" fill="#00504E"/>
<path d="M56.2877 53.4304C55.8613 50.0797 53.8726 47.2136 53.4155 43.9483L44.6522 39.0793C43.8335 48.2031 33.0474 52.9254 26.6958 58.8009C17.5096 67.3037 24.5604 76.4923 30.547 84.2786C28.9404 76.4753 35.9776 70.9512 42.7044 69.2554C47.6063 68.0202 50.6456 66.8533 53.7123 62.4381C55.6225 59.688 56.7312 56.9209 56.2877 53.4304Z" fill="#1F100D"/>
<path d="M59.9207 209.582C61.3568 194.276 64.3995 170.173 64.42 160.5C64.4746 137.223 59.8797 130.873 63.2909 114.485C63.4307 113.813 63.7002 113.554 64.0175 113.475L84.389 116.58C85.6477 133.907 84.0615 144.173 83.8568 150.475C83.4168 164.083 74.5682 193.542 68.2917 209.582H59.9207Z" fill="#FFA471"/>
<path d="M86.9405 116.686C86.7392 119.945 84.7914 120.316 83.1916 123.459C83.1336 123.565 83.079 123.664 83.0278 123.769C82.9767 123.855 82.9357 123.937 82.8948 124.018C81.9977 125.632 80.5036 127.956 80.1863 129.427C79.9748 130.406 79.7941 131.709 79.6337 133.289C71.3173 163.83 79.2892 199.878 79.2892 211.82C56.008 218.088 35.5137 217.201 8.10834 214.059C9.45234 190.775 18.6216 167.641 19.3004 154.505C19.6517 147.671 19.007 139.611 17.9837 131.375C15.1115 108.309 9.24426 83.8486 13.9278 81.0712C19.5153 77.7581 37.4887 71.7973 42.3258 69.9991C42.3258 69.9991 76.4852 79.3311 78.8389 82.8591C80.4115 85.2202 82.3831 90.2666 81.9738 92.7097C81.4996 95.5416 87.2884 111.07 86.9405 116.686Z" fill="#009CA9"/>
<path d="M27.5725 210.923C26.1364 195.617 23.0936 171.514 23.0731 161.841C23.0186 138.564 27.6134 132.214 24.2022 115.826C24.0624 115.154 23.7929 114.895 23.4757 114.816L3.10415 117.921C1.84543 135.247 3.43163 145.514 3.6363 151.816C4.07634 165.423 12.9249 194.883 19.2015 210.923H27.5725Z" fill="#FFA471"/>
<path d="M75.0389 131.863C72.0951 124.37 69.2161 116.911 67.108 109.118C66.1597 105.61 65.474 101.707 65.0749 98.1244C64.6929 94.709 65.6002 91.0069 64.3142 87.8508L64.6485 81.4259C68.3326 77.7307 75.5097 80.2761 77.5734 81.7467C81.8544 84.8004 84.3958 91.1878 86.5175 95.8589C90.6518 104.952 94.0153 114.816 96.7988 124.629L75.0389 131.863Z" fill="#009CA9"/>
<path d="M60.6233 105.662C49.4278 83.8589 40.1972 77.4716 37.192 70.4258C39.9789 68.2352 41.6913 66.0618 43.4412 63.1343C44.0689 62.0868 44.6761 61.0256 45.2594 59.9474C47.4221 55.969 49.2266 51.8234 50.6934 47.5413C50.7241 47.4525 50.7514 47.3604 50.7821 47.2717L66.337 59.7836C63.666 63.8269 60.8007 70.1801 62.0355 74.7454C62.2027 75.3698 66.2415 77.3863 66.2381 77.4921C66.1562 78.8671 61.3669 87.7384 60.6233 105.662Z" fill="#FFA471"/>
<path d="M64.7509 76.7924C64.2699 76.8436 62.5063 76.905 62.0015 76.9187C53.4019 77.1404 46.948 69.4224 43.4413 63.1306C44.0689 62.0831 44.6761 61.022 45.2594 59.9438C47.4221 55.9653 49.2266 51.8197 50.6934 47.5376C50.7241 47.4489 50.7514 47.3568 50.7821 47.2681L66.3371 59.78C63.6661 63.8233 61.9196 68.4466 63.1544 73.0085C63.325 73.6363 64.1027 76.0588 64.7509 76.7924Z" fill="#E07F4F"/>
<path d="M83.1916 123.459C83.1336 123.565 83.079 123.664 83.0278 123.769C82.9767 123.855 82.9357 123.937 82.8948 124.019C82.2365 125.295 81.7452 126.605 81.3052 127.874C80.6878 129.655 80.1283 131.464 79.6337 133.289C71.3173 163.83 79.2892 199.878 79.2892 211.82C56.008 217.539 35.5137 216.921 8.10834 214.059C9.45234 192.832 19.2424 167.31 20.6444 155.399C21.5415 147.787 19.0104 135.705 17.9871 128.195C18.4169 125.888 18.7137 123.507 18.8569 121.026C19.3481 112.424 17.5812 103.795 17.8404 95.4495C17.8302 95.4393 17.8199 95.4256 17.8097 95.4154C17.912 95.5246 18.202 95.8556 18.3111 95.8999C19.8291 96.4868 22.2545 103.396 23.2232 104.799C25.9795 108.774 29.319 121.449 33.1804 124.5C40.4428 130.239 49.2948 130.768 61.3806 130.768C71.8597 130.771 76.1543 127.635 83.1916 123.459Z" fill="#008287"/>
<path d="M20.0372 132.702C21.5552 124.8 23.022 116.942 23.7656 108.907C24.0999 105.29 24.1511 101.335 23.9976 97.7526C23.8509 94.3372 22.5376 90.8842 23.2164 87.5506L21.5415 79.7268C17.8029 76.8232 10.6053 82.8113 9.00549 84.6538C5.69324 88.4685 4.60167 94.8456 3.63289 99.8783C1.39517 111.517 1.05064 119.685 0 129.829L20.0372 132.702Z" fill="#009CA9"/>
<path d="M45.8188 103.68C45.2798 107.068 42.1006 109.374 38.7133 108.839C35.3294 108.299 33.0201 105.119 33.5556 101.731C33.5897 101.513 33.6341 101.301 33.6921 101.093C34.5039 98.0599 37.4921 96.0707 40.6611 96.5723C43.8301 97.0772 46.0541 99.8956 45.887 103.028C45.8768 103.246 45.8563 103.461 45.8188 103.68Z" fill="#006695"/>
<path d="M45.8904 103.028C45.0785 106.061 42.0904 108.054 38.9214 107.549C35.7524 107.044 33.5283 104.229 33.6955 101.09C34.5073 98.0563 37.4955 96.0671 40.6645 96.5686C43.8301 97.077 46.0575 99.8954 45.8904 103.028Z" fill="white"/>
<path d="M44.4987 101.946C44.1405 104.198 42.029 105.73 39.7776 105.372C37.5296 105.013 35.9946 102.898 36.3494 100.649C36.7075 98.3975 38.8191 96.8655 41.0704 97.2203C43.3252 97.582 44.8568 99.6941 44.4987 101.946Z" fill="#584F4F"/>
<path d="M42.7554 101.67C42.5507 102.956 41.3432 103.833 40.0572 103.628C38.7712 103.423 37.8945 102.216 38.0992 100.929C38.3038 99.6429 39.5114 98.766 40.7974 98.9707C42.0834 99.1755 42.9601 100.383 42.7554 101.67Z" fill="#393333"/>
<path d="M35.9025 70.6406C38.089 67.4401 40.3643 67.2831 41.0738 66.5427C41.3296 67.1296 39.2829 68.9311 38.8531 69.4771C38.8429 69.4907 38.8804 69.501 38.8907 69.5112C38.1811 70.2857 37.5671 71.1217 37.2226 71.9883C35.3976 76.5843 36.6154 81.9515 37.7957 86.5543C39.1124 91.7031 40.951 96.8382 41.3706 102.168C41.4593 103.294 39.7196 103.492 39.6275 102.362C39.3887 99.3358 38.6451 96.3707 37.8537 93.4466C36.4619 88.3013 34.6608 83.0297 34.5858 77.6455C34.5517 75.2605 34.538 72.6332 35.9025 70.6406Z" fill="#393333"/>
<path d="M70.0994 81.9993C69.7208 80.672 69.0079 79.4402 68.2472 78.2972C67.3466 76.9494 66.5552 76.5263 65.4432 75.3492C64.8155 74.6838 64.1094 74.2915 63.4033 73.708C63.492 74.4279 64.0003 75.6972 64.5461 76.5946C64.8394 76.8812 66.238 77.8775 67.0533 79.0854C67.756 80.126 68.3973 81.2384 68.7418 82.4565C69.0011 83.3436 70.3519 82.883 70.0994 81.9993Z" fill="#393333"/>
<path d="M70.9763 112.834C69.414 113.98 68.2576 113.905 67.5242 113.588C65.8527 112.871 64.7987 110.394 64.478 106.423C64.2836 104.021 64.4882 100.315 64.6417 97.6093C64.7168 96.2889 64.7918 94.9206 64.7475 94.6954C64.7611 94.7603 64.8294 94.8797 64.9624 94.9206L65.1705 94.1495C65.4979 94.245 65.4843 94.6374 65.457 95.4188C65.4365 95.9681 65.3956 96.7358 65.3444 97.6264C65.1978 100.305 64.9897 103.976 65.1807 106.32C65.4741 109.93 66.4019 112.25 67.7971 112.847C68.7761 113.267 70.0212 112.803 71.3959 111.503L71.8393 112.104C71.5425 112.387 71.2526 112.629 70.9763 112.834Z" fill="white"/>
<path d="M73.3709 110.596C73.7291 111.234 73.3641 112.233 72.5557 112.827C71.7472 113.421 70.8023 113.383 70.4407 112.745C70.0826 112.107 70.4476 111.107 71.256 110.514C72.0679 109.92 73.0128 109.957 73.3709 110.596Z" fill="#171111"/>
<path d="M77.7065 110.445C79.5213 110.647 80.5344 109.961 81.0836 109.289C82.3355 107.753 82.4071 104.962 81.2916 101.209C80.6162 98.94 79.1187 95.7122 78.0272 93.3545C77.4916 92.2012 76.939 91.0104 76.8981 90.7852C76.9083 90.8535 76.8878 90.9968 76.7821 91.1026L76.3216 90.5191C76.0623 90.7784 76.2124 91.1264 76.5092 91.8157C76.7207 92.3002 77.0311 92.9689 77.3893 93.7435C78.4706 96.0773 79.9545 99.2778 80.6128 101.489C81.6259 104.897 81.6123 107.48 80.5651 108.763C79.8317 109.664 78.5457 109.91 76.8469 109.47L76.6593 110.244C77.0379 110.346 77.3859 110.411 77.7065 110.445Z" fill="white"/>
<path d="M74.7557 109.705C74.6602 110.469 75.3425 111.176 76.2805 111.281C77.2186 111.387 78.0578 110.851 78.1567 110.084C78.2522 109.316 77.5734 108.613 76.6319 108.507C75.6938 108.402 74.8547 108.941 74.7557 109.705Z" fill="#171111"/>
<path d="M78.6957 93.6923C78.6513 93.7162 78.5967 93.723 78.566 93.7639C77.9282 94.5794 77.6041 94.5078 77.1606 94.9889C76.84 94.2177 76.4955 93.5251 76.1373 92.9144C72.6886 87.0832 67.606 88.4889 66.088 95.023C65.8697 95.9579 65.7264 96.9986 65.6684 98.1382C64.7576 98.0768 64.9384 98.1109 64.0242 98.0836C63.9731 93.6923 66.0743 82.61 68.8067 81.3714C72.1735 79.8463 76.6694 89.8708 78.6957 93.6923Z" fill="#393333"/>
<g opacity="0.5">
<path d="M76.1339 92.9143C72.6852 87.0832 67.6026 88.4889 66.0846 95.023C66.3848 91.1571 67.7015 83.7326 69.2911 83.0126C71.5527 81.989 75.8542 91.7747 76.1339 92.9143Z" fill="#006695"/>
<path d="M76.4478 94.1802C76.4716 94.2075 76.4887 94.245 76.4989 94.2894C76.6831 95.0912 76.6115 94.8353 76.4478 94.1802Z" fill="#FF9800"/>
</g>
<path d="M75.7042 20.8419C68.244 11.7318 60.6132 18.5354 52.058 17.1638L56.165 24.4007C61.5888 23.8479 67.8039 23.4419 71.6108 28.014C75.1175 32.2245 75.3529 38.1648 75.2403 43.4774C75.3392 43.2795 75.4893 42.8939 75.5609 42.7097C76.4376 40.4031 77.7577 37.8066 78.7231 34.4184C80.0739 29.6689 78.9414 24.7931 75.7042 20.8419Z" fill="#3B211C"/>
<path d="M75.4346 44.3542C75.2197 39.7889 76.5774 34.3467 74.9571 29.993C74.1589 27.8502 71.6448 25.3526 69.8915 23.8888C67.1387 21.5891 64.2699 18.9277 60.2618 19.1563C56.7517 19.3577 52.2353 20.8624 49.097 22.6434C40.477 27.5295 37.9971 39.7105 40.5452 48.2917C41.7323 52.2838 42.261 57.2756 45.256 60.5819C47.8451 63.4377 51.6895 66.3823 54.9983 68.3272C58.7267 70.5143 63.5672 72.756 67.0636 69.4805C70.1507 66.5836 71.4402 62.3493 73.2583 58.6541C75.4551 54.1809 75.6734 49.4177 75.4346 44.3542Z" fill="#FFA471"/>
<path d="M58.2013 46.729C58.0853 48.0665 56.2535 49.0014 54.1113 48.8171C51.9657 48.6329 50.3215 47.3977 50.4375 46.0602C50.5535 44.7227 52.3853 43.7878 54.5275 43.972C56.6697 44.1597 58.3139 45.3915 58.2013 46.729Z" fill="#241917"/>
<path d="M49.4518 47.1077L49.6599 47.1248C52.7129 48.1996 56.2775 48.7728 59.2964 47.06C58.0104 42.1023 49.5882 41.5427 49.4518 47.1077Z" fill="#E07F4F"/>
<path d="M74.9128 46.2275C74.8445 47.5684 73.5346 48.5921 71.9894 48.5102C70.4441 48.4317 69.2468 47.2818 69.315 45.9409C69.3833 44.6 70.6897 43.5764 72.2384 43.6582C73.7837 43.7367 74.981 44.8866 74.9128 46.2275Z" fill="#241917"/>
<path d="M68.4657 47.0259L68.6192 47.0328C70.8842 47.9608 73.5176 48.36 75.7247 46.5039C74.715 41.6144 68.4998 41.4609 68.4657 47.0259Z" fill="#E07F4F"/>
<path d="M62.4824 55.2524L62.3699 55.4503C64.2187 57.5794 67.1148 57.0812 67.9062 54.2219C66.1665 55.5765 64.5769 55.3581 62.4824 55.2524Z" fill="#E07F4F"/>
<path d="M49.6159 41.1744C49.6194 41.1709 49.6228 41.1675 49.6262 41.164C49.6194 41.164 49.6159 41.1675 49.609 41.1675C49.5711 41.1985 49.5711 41.2019 49.6159 41.1744Z" fill="#241917"/>
<path d="M59.6308 40.1848C59.6308 40.1848 53.9955 36.8547 49.6258 41.1606C51.6043 40.8126 52.9687 40.8194 55.0018 41.2698C56.3901 41.5769 59.5796 42.679 59.6308 40.1848Z" fill="#241917"/>
<path d="M68.4622 25.8713C67.9982 26.4991 67.5173 27.0758 67.0226 27.5978C60.2003 34.8075 50.5194 32.7636 48.5716 37.735C46.0917 44.0745 43.2638 49.3086 36.9566 51.738C38.9351 47.507 35.8855 42.853 35.2851 38.7859C34.6404 34.4287 35.193 28.8978 37.6252 25.1412C37.6354 25.1275 37.6457 25.1139 37.6559 25.0968C40.0471 21.4186 44.4441 17.4402 48.7081 16.6588C53.7873 15.7308 58.4128 16.635 62.3391 18.8732C65.7878 20.8386 67.4866 23.7286 68.1381 25.0968C68.1893 25.206 68.2336 25.3049 68.2711 25.3902C68.4007 25.6939 68.4622 25.8713 68.4622 25.8713Z" fill="#3B211C"/>
<path d="M76.4377 40.4135C76.4343 40.41 76.4308 40.4066 76.4274 40.4031C76.4308 40.4031 76.4377 40.4031 76.4411 40.4031C76.479 40.4341 76.479 40.4376 76.4377 40.4135Z" fill="#241917"/>
<path d="M67.7562 40.9866C67.7562 40.9866 71.9656 36.8375 76.4274 40.4065C74.6843 40.369 73.5279 40.584 71.8769 41.3414C70.7512 41.8566 68.2338 43.4364 67.7562 40.9866Z" fill="#241917"/>
<path d="M59.733 61.312C61.1555 62.1207 62.7553 64.0826 64.4711 64.0963C66.1597 64.1099 67.5446 62.0047 67.5924 60.6979L59.733 61.312Z" fill="#FF3C2B"/>
<path d="M68.701 60.7866C67.7015 60.0325 68.0699 59.1693 66.818 59.5173C65.5013 59.8824 65.0851 59.821 63.9902 59.6026C62.5165 59.3058 59.7842 60.5955 58.3208 61.1415C60.2379 61.4417 62.8201 61.51 63.5876 61.5134C65.1738 61.5134 67.3536 61.4315 68.701 60.7866Z" fill="#FF2420"/>
<path d="M65.7197 23.9776C65.7094 23.9708 65.6958 23.9674 65.6855 23.9606C65.689 23.9742 65.6924 23.9879 65.6958 24.0015C65.8254 24.1005 65.8322 24.0902 65.7197 23.9776Z" fill="#241917"/>
<path d="M73.6779 30.6004C72.501 29.0582 71.3685 26.0761 70.5396 24.2267C68.2984 19.2418 65.7367 17.314 60.4016 16.8909L56.5947 23.6092C62.844 22.9711 65.2557 22.4593 67.6571 27.9936C68.5338 30.0101 71.2491 33.934 73.7734 33.9033C76.4887 33.8692 77.4438 32.1154 77.437 29.8225C77.1334 31.6411 75.0833 32.4395 73.6779 30.6004Z" fill="#3B211C"/>
<path d="M68.6022 24.661C68.5987 24.668 68.5952 24.6749 68.5952 24.6819C68.6022 24.6784 68.6056 24.6715 68.6091 24.668C68.6715 24.5778 68.668 24.5778 68.6022 24.661Z" fill="#1F100D"/>
<path d="M68.592 24.6805C68.4862 24.9227 68.3805 25.1582 68.2645 25.3902C67.8824 26.1886 67.4663 26.9222 67.0194 27.5944C60.1971 34.804 50.5162 32.7602 48.5684 37.7315C46.0885 44.0711 43.2606 49.3052 36.9534 51.7345C38.9318 47.5036 35.8823 42.8496 35.2819 38.7824C34.6372 34.4253 35.1898 28.8944 37.622 25.1377C37.6322 25.1241 37.6424 25.1104 37.6527 25.0934C36.4587 29.0377 36.9397 32.7738 37.332 36.9468C37.7175 32.6101 41.0434 25.8781 45.4267 24.3734C42.4863 26.9188 42.9366 31.4875 42.633 34.9644C46.931 24.8204 61.0806 31.061 68.1349 25.0934C68.2918 24.9637 68.4453 24.8238 68.592 24.6805Z" fill="#1F100D"/>
<path d="M35.5547 51.7243C36.7213 55.4332 39.2695 57.9376 41.248 57.3132C43.223 56.6922 43.8814 53.1778 42.7148 49.4689C41.5481 45.76 38.9966 43.2556 37.0215 43.88C35.043 44.5044 34.3881 48.0154 35.5547 51.7243Z" fill="#FFA471"/>
<path d="M36.2676 49.37C34.9065 45.3711 40.1393 44.2553 41.3536 48.534C38.6963 47.5514 39.863 52.7684 42.2201 52.8161L42.6396 52.6831C41.2991 57.6237 34.6984 49.196 39.0852 47.5275C37.7276 46.9304 36.3631 47.8277 36.2676 49.37Z" fill="#E07F4F"/>
<path d="M116.263 81.4458C100.834 84.4791 103.867 119.371 100.834 135.301C99.1765 144.009 103.99 140.153 103.13 148.909C102.629 154.006 100.456 165.832 106.954 167.869C121.223 172.346 125.112 134.257 125.156 126.358L116.263 81.4458Z" fill="white"/>
<path d="M99.3777 125.98C102.066 131.227 95.7585 165 99.4664 171.346C102.97 177.341 109.755 174.748 113.575 171.414C119.047 166.644 120.397 158.264 123.737 151.785L99.3777 125.98Z" fill="white"/>
<path d="M98.7775 125.345L99.3778 125.983C99.2141 125.659 99.0162 125.437 98.7775 125.345Z" fill="white"/>
<path d="M86.8043 116.716C79.3816 115.436 88.544 126.536 89.9324 125.11L94.5784 126.324C96.0349 123.731 90.0552 117.276 86.8043 116.716Z" fill="#FFA471"/>
<path d="M98.1704 117.958C95.5881 116.491 93.3061 122.69 92.0985 123.673L96.3352 124.922C97.7542 124.639 100.463 119.261 98.1704 117.958Z" fill="#FFA471"/>
<path d="M98.7537 130.893C98.9208 131.224 98.7844 131.627 98.4535 131.794C98.1226 131.961 97.7201 131.825 97.5529 131.494L82.247 100.894C82.0799 100.563 82.2163 100.161 82.5472 99.9936C82.8781 99.8264 83.2806 99.9629 83.4478 100.294L98.7537 130.893Z" fill="#171E21"/>
<path d="M111.071 100.522C110.996 107.19 109.512 113.925 109.85 120.971C110.208 128.436 109.246 136.414 109.935 143.644L114.486 144.78C114.486 129.695 111.071 115.675 111.071 100.522Z" fill="#EAE1DF"/>
<path d="M136.99 366.215C137.181 369.368 138.77 374.79 139.568 378.601C140.118 381.232 140.094 390.506 141.676 392.184C147.533 398.398 147.677 372.152 147.581 369.297L136.99 366.215Z" fill="#FF9A72"/>
<path d="M147.291 385.374L142.024 384.709C139.531 381.351 138.381 385.261 137.317 386.886C136.051 388.813 133.585 390.236 131.75 391.355C128.516 393.324 120.517 394.805 121.591 400.425C128.052 401.117 141.482 401.281 148.185 400.343C151.071 399.937 148.789 397.391 148.117 392.928C147.66 389.864 147.878 388.36 147.291 385.374Z" fill="white"/>
<path d="M131.443 315.052C131.586 319.498 132.558 329.202 133.711 339.649C135.509 355.942 137.747 374.056 137.962 376.902L147.561 376.987C150.119 365.059 152.033 352.663 154.206 340.895C155.434 334.241 156.692 327.475 157.627 320.651C159.377 307.87 159.998 294.88 157.184 282.034C155.079 272.432 158.47 245.088 158.64 234.948C158.811 224.933 154.229 228.997 158.268 220.006L131.31 234.678C132.077 242.168 132.207 249.701 132.818 257.303C134.677 280.423 130.672 291.41 131.443 315.052Z" fill="#005B89"/>
<path d="M133.711 339.649C135.509 355.942 137.747 374.056 137.962 376.902L147.561 376.987C150.119 365.059 152.033 352.663 154.206 340.895C155.434 334.241 156.692 327.475 157.627 320.651C156.924 322.756 156.123 324.821 155.209 326.83C151.368 335.279 144.279 341.843 135.287 340.038C134.769 339.936 134.244 339.806 133.711 339.649Z" fill="#004C6F"/>
<path d="M173.472 366.202C173.561 369.361 174.973 374.841 175.645 378.686C176.109 381.338 175.781 390.605 177.306 392.345C182.955 398.794 183.954 372.572 183.954 369.713L173.472 366.202Z" fill="#FF9A72"/>
<path d="M179.667 382.788C175.948 382.375 175.259 385.828 174.598 387.469C173.813 389.421 172.541 390.014 171.326 391.168C169.184 393.194 163.726 394.829 164.736 400.418C169.232 400.984 180.495 401.411 185.084 400.343C187.059 399.882 185.783 398.391 184.036 393.515C183.006 390.639 183.163 383.177 179.667 382.788Z" fill="white"/>
<path d="M163.242 259.613C166.315 282.569 162.897 293.802 164.903 317.352C165.408 323.292 167.042 331.757 168.635 340.093C170.081 347.668 171.49 355.137 171.985 360.504C172.38 364.803 172.892 373.49 173.493 378.127H184.251C186.175 366.052 187.437 353.55 188.989 341.663C190.037 333.654 191.111 325.483 191.633 317.273C192.37 305.696 191.998 294.054 188.87 282.709C186.267 273.261 187.598 249.084 187.236 238.95C186.881 228.942 183.136 229.956 186.69 220.716L160.551 237.128C161.707 244.553 162.232 252.062 163.242 259.613Z" fill="#005B89"/>
<path d="M168.635 340.09C170.081 347.664 171.49 355.133 171.985 360.5C172.38 364.8 172.892 373.487 173.493 378.123H184.251C186.175 366.048 187.437 353.547 188.989 341.659C190.037 333.651 191.111 325.479 191.633 317.27C186.4 330.048 177.985 341.748 168.635 340.09Z" fill="#004C6F"/>
<path d="M195.409 170.279C196.013 211.316 197.514 255.273 196.412 256.594C195.471 257.723 167.973 262.851 147.493 257.163C146.043 249.875 143.126 234.671 142.403 227.779C142.386 227.844 142.372 227.912 142.359 227.977C141.973 229.731 141.622 231.826 141.308 234.101C140.213 241.97 139.555 252.025 139.531 257.733C132.135 260.579 127.469 258.658 123.604 258.303C122.861 249.834 122.032 231.089 121.295 208.723C121.124 203.618 120.96 198.326 120.8 192.922C119.299 141.598 118.399 80.4098 119.879 77.2297C121.571 73.5959 126.517 71.9616 129.744 69.9382C133.114 67.8296 136.403 65.3354 139.688 63.2063L164.351 56.4027L165.36 56.1229C168.529 58.0848 172.217 59.7021 175.468 61.0158C178.347 62.1758 180.885 63.0971 182.423 63.8034C187.151 65.9769 192.94 67.7716 196.641 71.7671C204.043 79.7512 198.104 94.3206 196.583 104.564C195.249 113.544 195.037 134.081 195.249 157.252C195.29 161.524 195.344 165.885 195.409 170.279Z" fill="white"/>
<path d="M169.123 58.6444C165.418 64.0047 161.758 69.5493 158.05 75.0802C153.169 82.3614 148.199 89.6257 142.915 96.4259C140.435 90.4207 138.723 83.5795 137.559 76.6838C137.119 74.077 136.758 71.46 136.468 68.8771C136.13 65.9086 135.881 62.9845 135.707 60.1696L151.282 43.7406L156.563 38.1722C156.287 38.7863 156.167 39.5745 156.167 40.4582C156.167 41.864 156.481 43.5223 156.959 45.1259C157.61 47.3267 158.579 49.4353 159.5 50.6978C161.929 54.0177 165.971 56.389 169.123 58.6444Z" fill="#FFA471"/>
<path d="M149.642 70.317C144.02 75.5442 139.545 73.3332 136.468 68.8805C136.13 65.912 135.881 62.9879 135.707 60.173L151.282 43.744L156.167 40.4582L156.181 40.448C156.56 41.3351 156.839 43.0002 156.955 45.1259C157.344 52.2434 155.843 64.5506 149.642 70.317Z" fill="#E07F4F"/>
<path d="M158.047 75.0802C153.165 82.3615 148.195 89.6257 142.911 96.4259C140.432 90.4207 138.719 83.5796 137.556 76.6838C141.069 77.5948 145.702 77.6563 148.223 77.513C151.757 77.3185 154.915 76.2266 158.047 75.0802Z" fill="#188AAF"/>
<path d="M175.601 60.6746C175.556 60.7872 175.512 60.8998 175.468 61.0158C173.854 65.1512 171.545 71.2655 169.556 75.1655C168.543 77.1547 167.581 80.2051 165.357 80.5906C163.532 80.9079 160.977 78.8129 159.149 78.6389C158.927 83.02 162.993 84.5179 159.391 88.2643C156.375 91.3999 145.565 97.0571 144.051 101.131C139.122 114.404 139.19 183.989 142.362 227.977C141.977 229.731 141.625 231.826 141.312 234.102C134.677 185.678 138.726 106.321 140.909 100.496C143.948 92.3928 161.328 62.6092 164.354 56.4027C164.685 55.7271 164.845 55.3313 164.797 55.2733L175.601 60.6746Z" fill="#EAE1DF"/>
<path d="M141.25 90.5196C140.414 87.6092 139.599 84.5793 139.057 81.5835C138.197 76.8203 136.174 68.7338 137.426 64.0252L134.305 61.1727C131.535 67.0005 128.359 74.0838 127.24 80.0617C128.544 79.8638 129.884 80.031 131.177 80.089C129.761 81.9008 127.909 83.3816 127.936 85.538C127.96 87.5477 129.659 90.6834 130.986 92.3382C133.78 95.8219 138.736 97.9408 142.864 98.613C143.809 96.5862 141.844 92.5941 141.25 90.5196Z" fill="#EAE1DF"/>
<path d="M125.75 16.127H116.87C105.351 17.9354 115.973 33.0405 120.268 38.2779C119.054 30.1266 121.281 23.0432 125.75 16.127Z" fill="#2A0905"/>
<path d="M155.038 33.9754C154.236 26.1993 153.22 16.4819 147.83 10.1355C142.847 4.26677 130.798 4.3043 124.836 8.43287C122.871 9.79427 119.562 12.8992 119.067 15.2979L116.87 19.6926C117.208 23.4936 116.751 28.6628 117.16 32.8767C117.573 37.1213 119.013 40.3661 120.381 44.1978C123.113 51.8544 125.859 57.8391 131.699 63.9126C138.562 71.0539 146.193 64.2606 150.095 59.2449C157.784 49.3568 155.908 42.3963 155.038 33.9754Z" fill="#FFA471"/>
<path d="M145.354 35.9373C145.156 37.1827 144.327 38.2165 143.246 38.9331C140.889 40.4958 137.361 40.5367 136.686 37.889C136.686 37.889 137.525 35.5108 139.616 35.0195C139.93 34.9444 140.24 34.8727 140.547 34.8113C142.185 34.4872 143.713 34.4735 145.354 35.9373Z" fill="#EEEEEE"/>
<path d="M140.547 34.8113C140.24 34.8727 139.93 34.9444 139.616 35.0194C138.48 35.289 137.716 36.1113 137.252 36.8074C137.648 37.5648 137.76 38.4963 137.586 39.3254C138.958 40.4309 141.445 40.1273 143.246 38.933C143.034 38.3086 142.737 37.6638 142.359 37.0257C141.827 36.1386 141.196 35.3845 140.547 34.8113Z" fill="#20181A"/>
<path d="M139.255 33.8287C137.164 34.3234 136.686 37.889 136.686 37.889C138.334 39.8645 144.566 37.3362 145.35 35.9373C143.406 34.1972 141.25 33.3544 139.255 33.8287Z" fill="#E07F4F"/>
<path d="M127.783 39.9226C127.803 41.0929 127.24 42.0551 126.412 42.7102C124.604 44.1432 121.551 44.1228 120.565 41.6183C120.565 41.6183 120.93 39.3937 122.666 38.9604C122.929 38.8955 123.188 38.8341 123.444 38.7795C124.812 38.5032 126.139 38.5134 127.783 39.9226Z" fill="#EEEEEE"/>
<path d="M123.444 38.7795C123.188 38.8341 122.929 38.8921 122.666 38.9604C121.725 39.1958 121.186 39.9567 120.889 40.6084C121.349 41.3283 121.588 42.2086 121.564 42.9866C122.922 44.0511 125.033 43.8055 126.412 42.7102C126.132 42.1165 125.777 41.5058 125.351 40.8984C124.754 40.0556 124.092 39.3323 123.444 38.7795Z" fill="#20181A"/>
<path d="M122.171 37.831C120.435 38.2643 120.565 41.6149 120.565 41.6149C122.298 43.5018 127.319 41.226 127.786 39.9191C125.828 38.2472 123.829 37.4181 122.171 37.831Z" fill="#E07F4F"/>
<path d="M135.127 34.4804C136.751 33.7707 138.409 33.1531 140.142 32.7812C141.84 32.4161 143.57 32.1704 145.306 32.1158C145.292 31.3583 145.282 30.6009 145.275 29.84C143.147 29.4544 137.88 29.8571 136.301 30.478C134.23 31.2901 134.435 32.4502 134.998 34.5418C135.042 34.5213 135.086 34.5008 135.127 34.4804Z" fill="#1B0C11"/>
<path d="M125.869 36.2103C124.559 36.0294 123.246 35.9475 121.946 36.1181C120.67 36.2853 119.401 36.5788 118.177 37.0564C117.996 36.3297 117.812 35.6063 117.628 34.883C119.016 33.8696 122.789 32.6481 124.044 32.7607C125.692 32.904 125.842 34.0709 125.971 36.2341C125.941 36.2239 125.903 36.2137 125.869 36.2103Z" fill="#1B0C11"/>
<path d="M132.62 51.6156C133.353 47.7771 131.658 40.6118 131.658 40.6118C131.644 42.8774 131.668 45.1327 131.436 47.3779C131.235 49.3295 130.57 51.1959 130.191 53.1476C132.436 54.0484 137.092 52.8166 138.122 50.6875C137.017 50.4965 134.387 50.6944 132.62 51.6156Z" fill="#E07F4F"/>
<path d="M128.312 55.5463C128.312 55.5463 128.363 55.5906 128.465 55.6725C128.564 55.751 128.714 55.8636 128.912 55.9864C129.11 56.1092 129.362 56.2423 129.656 56.372C129.952 56.4982 130.293 56.6176 130.672 56.7234C131.429 56.9315 132.344 57.0783 133.309 57.0885C133.551 57.0885 133.793 57.0851 134.035 57.0646C134.284 57.0441 134.506 57.01 134.779 56.9657C135.26 56.877 135.779 56.7575 136.273 56.6006C136.771 56.4504 137.262 56.2696 137.74 56.0717C138.214 55.8704 138.675 55.652 139.111 55.4234C139.981 54.9628 140.752 54.451 141.363 53.9494C141.666 53.6969 141.936 53.4513 142.157 53.2158C142.376 52.9804 142.553 52.7586 142.69 52.5676C142.819 52.3731 142.922 52.2161 142.98 52.1001C143.041 51.9875 143.072 51.9261 143.072 51.9261C143.072 51.9261 143.061 51.9943 143.038 52.1206C143.01 52.2468 142.969 52.4345 142.881 52.6665C142.792 52.8951 142.673 53.1715 142.488 53.4649C142.311 53.7584 142.082 54.0791 141.803 54.3964C141.247 55.0379 140.489 55.6896 139.599 56.256C139.152 56.5392 138.675 56.8053 138.17 57.0407C137.665 57.2796 137.136 57.4775 136.594 57.6481C136.045 57.8118 135.502 57.9415 134.926 58.02C134.667 58.0541 134.366 58.0882 134.087 58.0882C133.804 58.0951 133.531 58.0848 133.261 58.0609C132.726 58.0132 132.214 57.9176 131.743 57.7914C131.269 57.6617 130.836 57.5014 130.45 57.3205C130.065 57.1397 129.727 56.9384 129.447 56.7371C129.164 56.5392 128.943 56.331 128.775 56.1536C128.605 55.9796 128.496 55.8158 128.421 55.71C128.349 55.6043 128.312 55.5463 128.312 55.5463Z" fill="#E07F4F"/>
<path d="M154.12 36.6095C152.732 32.7402 146.691 22.0025 144.706 18.7304C142.147 14.5097 139.333 18.6007 136.451 20.2453C117.693 30.9557 113.118 21.0779 111.928 17.4987C111.181 15.2467 112.944 12.5376 115.175 10.214C116.867 8.45335 118.828 6.91111 120.166 5.96256C128.677 -0.0801511 140.489 -1.12082 148.721 1.01852C155.611 2.80984 159.005 7.19772 160.305 12.3055C163.003 22.8658 156.774 36.5003 154.12 36.6095Z" fill="#521A0D"/>
<path d="M154.12 36.6095C152.732 32.7402 146.691 22.0025 144.706 18.7304C142.147 14.5097 139.333 18.6007 136.451 20.2453C117.693 30.9557 113.118 21.0779 111.928 17.4987C111.181 15.2467 112.944 12.5376 115.175 10.214C115.475 11.183 116.069 12.2168 117.085 13.3769C120.445 17.2223 125.603 16.4102 130.051 14.5507C133.896 12.9436 136.972 10.1969 141.308 10.4187C145.47 10.6302 148.328 12.2919 151.204 15.2058C151.405 13.1722 150.331 11.1113 149.092 9.5145C151.439 9.77381 154.915 11.5685 155.86 13.6942C156.641 12.4011 156.498 10.4665 155.901 9.02316C157.48 10.4903 158.5 12.1349 159.353 14.1242C159.728 13.5407 160.042 12.9368 160.305 12.3124C163.003 22.8658 156.774 36.5003 154.12 36.6095Z" fill="#2A0905"/>
<path d="M153.172 34.1221C152.916 34.9853 152.834 37.7013 152.834 37.7013C151.736 40.3934 153.448 45.6923 157.081 44.3514C159.251 43.5495 160.724 39.2504 161.311 37.1861C163.692 28.83 155.168 27.3424 153.172 34.1221Z" fill="#FFA471"/>
<path d="M154.352 36.7971C155.608 35.7428 156.935 36.9643 156.71 38.4622C156.525 39.6973 153.865 39.7929 153.865 39.7929C155.021 41.1543 157.852 41.0212 158.664 38.6328C159.282 36.8244 157.498 33.1189 155.4 35.0467C155.43 33.3714 158.019 30.7987 159.551 32.4536C157.068 29.3009 152.909 33.7331 154.352 36.7971Z" fill="#E07F4F"/>
<path d="M148.117 114.441C148.117 115.929 147.268 117.134 146.217 117.134C145.166 117.134 144.317 115.929 144.317 114.441C144.317 112.954 145.166 111.749 146.217 111.749C147.268 111.749 148.117 112.957 148.117 114.441Z" fill="#EAE1DF"/>
<path d="M148.117 165.175C148.117 166.663 147.268 167.867 146.217 167.867C145.166 167.867 144.317 166.663 144.317 165.175C144.317 163.687 145.166 162.483 146.217 162.483C147.268 162.483 148.117 163.687 148.117 165.175Z" fill="#EAE1DF"/>
<path d="M148.117 206.341C148.117 207.829 147.268 209.033 146.217 209.033C145.166 209.033 144.317 207.829 144.317 206.341C144.317 204.854 145.166 203.649 146.217 203.649C147.268 203.649 148.117 204.854 148.117 206.341Z" fill="#EAE1DF"/>
<path d="M101.783 143.549L85 114.632L86.6954 112.995L138.675 114.476L155.857 162.787L153.773 165.472L101.783 143.549Z" fill="#171E21"/>
<path d="M111.225 164.667L85 114.632L137.59 116.615L153.773 165.472L111.225 164.667Z" fill="#3A4950"/>
<path d="M195.409 170.279C181.215 174.985 154.902 165.025 146.326 159.16L195.252 157.252C195.29 161.524 195.344 165.885 195.409 170.279Z" fill="#EAE1DF"/>
<path d="M137.856 145.29C137.351 146.706 137.703 151.039 136.386 152.223C135.455 153.055 117.236 151.445 114.022 150.486C111.396 149.705 108.953 149.357 106.524 148.49C105.726 148.207 104.935 147.866 104.133 147.436C101.384 145.958 99.8044 143.382 97.4132 141.335C95.7588 139.923 94.4557 133.624 94.3022 132.495C94.2886 132.389 94.2852 132.331 94.2886 132.32C94.3329 132.378 94.3773 132.43 94.4216 132.488C95.868 134.279 97.4644 136.125 98.4673 137.299C98.7026 137.575 99.0369 137.81 99.4326 138.005C100.896 138.732 103.212 138.971 104.631 139.09C108.182 139.383 110.509 139.656 113.787 140.284C113.391 138.694 104.553 133.156 107.019 131.13C107.551 130.693 109.042 131.399 109.806 131.727C111.518 132.467 114.118 135.013 115.192 135.456C117.819 136.541 120.654 135.965 122.977 137.595C124.842 138.909 127.002 140.639 127.687 142.137L137.856 145.29Z" fill="#FFA471"/>
<path d="M196.75 152.513C193.216 138.923 181.57 139.639 169.767 140.926C163.648 141.591 136.597 145.525 133.746 142.273L129.666 157.467C131.208 157.457 159.981 163.517 172.176 164.796C178.787 165.489 184.811 165.472 191.517 165.438C195.679 165.417 199.932 163.674 200.543 159.538C200.969 156.645 197.432 155.13 196.75 152.513Z" fill="white"/>
<path d="M201.304 76.4791C198.643 71.1666 192.274 65.5094 187.652 70.7912C181.543 77.7757 183.59 89.8509 180.124 96.5146L178.562 109.405C177.784 116.001 178.998 123.784 178.954 130.478C178.903 138.066 180.649 146.112 183.347 153.154C184.951 157.338 191.497 165.561 196.927 163.623C201.921 161.845 202.105 151.08 202.3 146.815C202.603 140.09 202.859 133.307 203.19 126.578C203.657 117.055 204.326 107.529 204.34 97.9852C204.35 90.7175 204.609 83.078 201.304 76.4791Z" fill="white"/>
<path d="M193.349 149.94C192.718 145.14 188.635 137.776 183.862 136.023L186.516 88.237C185.38 95.0645 183.484 103.786 183.105 114.025C182.826 121.614 179.674 135.245 178.176 137.159C175.754 140.257 149.792 142.284 145.19 143.608C152.309 144.372 179.974 140.472 182.252 141.806C184.388 143.055 186.346 147.446 187.577 149.562C187.202 146.293 185.626 143.215 183.917 140.253C187.328 142.383 192.196 145.774 193.349 149.94Z" fill="#EAE1DF"/>
<path d="M167.97 194.576C168.127 194.611 168.287 194.641 168.447 194.675C168.471 194.447 168.502 194.222 168.54 194.007L167.97 194.576Z" fill="#EAE1DF"/>
<path d="M168.447 194.675C167.816 200.769 172.278 212.179 179.793 213.476C189.873 215.216 189.853 200.834 190.61 194.065C184.228 196.347 175.355 196.078 168.447 194.675Z" fill="#EAE1DF"/>
<path d="M125.194 191.789C124.679 196.402 124.525 204.546 121.291 208.719C121.121 203.615 120.957 198.323 120.797 192.918C122.352 192.649 123.829 192.277 125.194 191.789Z" fill="#EAE1DF"/>
</svg>
