<svg width="375" height="252" viewBox="0 0 375 252" fill="none" xmlns="http://www.w3.org/2000/svg">
<path d="M172.616 58.5837C172.616 58.5837 178.315 68.455 168.627 69.8275C158.946 71.2001 137.298 60.2074 114.798 56.9109L144.724 45.2258L172.616 58.5837Z" fill="#FFA98F"/>
<g style="mix-blend-mode:multiply" opacity="0.4">
<path d="M129.222 59.9379C142.653 56.0163 157.825 57.2785 169.871 65.2075C171.011 66.243 171.538 67.5665 171.268 69.0861C177.126 66.4023 172.616 58.5776 172.616 58.5776L144.724 45.2197L114.798 56.9048C119.681 57.6217 124.528 58.7001 129.216 59.9379H129.222Z" fill="#FFA98F"/>
</g>
<path d="M167.966 45.5138C167.966 45.5138 202.335 54.8092 200.435 61.7271C199.283 65.9305 192.629 70.1829 179.528 65.7834C166.428 61.3839 135.858 49.9133 123.002 50.7344L157.145 39.466L167.966 45.5138Z" fill="#FFA98F"/>
<g style="mix-blend-mode:multiply" opacity="0.4">
<path d="M141.581 53.5837C153.015 46.58 177.114 52.4501 195.361 61.0531C197.114 61.8803 198.015 63.8472 197.365 65.6241L197.347 65.667C199.026 64.5702 200.049 63.1486 200.435 61.7332C202.335 54.8153 167.966 45.52 167.966 45.52L157.145 39.4722L123.002 50.7406C127.518 50.4526 134.222 51.6842 141.581 53.5898V53.5837Z" fill="#FFA98F"/>
</g>
<path d="M148.793 25.6548C148.793 25.6548 204.167 44.3986 211.164 47.64C218.572 51.0714 213.002 59.3986 201.354 58.4366C189.265 57.4378 134.816 39.4722 134.816 39.4722L148.787 25.6548H148.793Z" fill="#FFA98F"/>
<g style="mix-blend-mode:multiply" opacity="0.4">
<path d="M162.377 48.216C178.149 39.5334 196.74 39.5334 210.907 52.1131C211.936 52.8606 212.408 54.1535 212.359 55.5567C215.123 52.732 215.282 49.6437 211.164 47.6339C204.234 44.2516 148.793 25.6486 148.793 25.6486L135.245 40.2136C135.245 40.2136 148.352 44.3312 162.377 48.2099V48.216Z" fill="#FFA98F"/>
</g>
<path d="M71.3297 36.3717C86.728 36.6535 126.299 13.8349 133.701 13.5592C141.103 13.2834 174.43 16.58 186.391 17.4072C198.352 18.2344 218.695 18.7491 220.558 22.6155C223.775 29.2945 203.775 32.2356 194.093 32.5114C184.412 32.7871 157.911 31.9722 152.5 34.1658C147.09 36.3655 71.3297 51.482 71.3297 51.482V36.3655V36.3717Z" fill="#FFA98F"/>
<g style="mix-blend-mode:multiply" opacity="0.4">
<path d="M152.5 34.1719C155.772 32.8423 165.503 32.8055 175.809 32.9342C175.637 27.3214 173.119 25.1278 166.667 24.6499C147.788 24.08 143.303 29.4783 119.265 33.3202C104.853 35.6241 85.0491 39.0861 71.3297 39.5579V51.4881C71.3297 51.4881 147.09 36.3717 152.5 34.1719Z" fill="#FFA98F"/>
</g>
<path d="M0 59.7663C0 59.7663 73.3211 77.8729 83.5723 77.5972C93.8235 77.3214 118.033 63.0322 127.433 56.9844C136.832 50.9366 159.301 43.8533 165.594 41.868C175.288 38.8104 178.664 28.841 169.835 26.6413C161.005 24.4415 143.664 29.2271 137.114 31.6964C130.564 34.1719 83.2843 38.02 71.3235 36.3655C59.3627 34.7234 0 1.91089 0 1.91089V59.7663Z" fill="#FFA98F"/>
<g style="mix-blend-mode:screen" opacity="0.3">
<path d="M158.701 39.4722L156.44 28.2099C168.842 25.3607 171.311 27.5665 172.169 30.5751C174.093 37.3092 158.701 39.4722 158.701 39.4722Z" fill="#FFA98F"/>
</g>
<path d="M202.549 199.196C202.549 199.196 196.851 189.325 206.538 187.953C216.219 186.58 237.868 197.573 260.368 200.869L230.441 212.554L202.549 199.196Z" fill="#FFA98F"/>
<g style="mix-blend-mode:multiply" opacity="0.4">
<path d="M245.95 197.836C232.518 201.758 217.347 200.495 205.3 192.567C204.161 191.531 203.634 190.207 203.903 188.688C198.045 191.372 202.555 199.196 202.555 199.196L230.447 212.554L260.374 200.869C255.49 200.152 250.643 199.074 245.956 197.836H245.95Z" fill="#FFA98F"/>
</g>
<path d="M207.206 212.26C207.206 212.26 172.837 202.965 174.736 196.047C175.888 191.85 182.543 187.597 195.643 191.991C208.744 196.39 239.314 207.861 252.169 207.04L218.027 218.308L207.206 212.26Z" fill="#FFA98F"/>
<g style="mix-blend-mode:multiply" opacity="0.4">
<path d="M233.591 204.19C222.157 211.2 198.058 205.324 179.81 196.727C178.058 195.9 177.157 193.927 177.806 192.156L177.825 192.107C176.146 193.204 175.122 194.625 174.736 196.041C172.837 202.959 207.206 212.254 207.206 212.254L218.027 218.302L252.169 207.033C247.653 207.321 240.95 206.09 233.591 204.184V204.19Z" fill="#FFA98F"/>
</g>
<path d="M226.372 232.119C226.372 232.119 170.999 213.375 164.001 210.134C156.593 206.703 162.157 198.375 173.811 199.337C185.907 200.33 240.349 218.302 240.349 218.302L226.379 232.119H226.372Z" fill="#FFA98F"/>
<g style="mix-blend-mode:multiply" opacity="0.4">
<path d="M212.788 209.558C197.016 218.241 178.425 218.241 164.258 205.661C163.229 204.913 162.757 203.62 162.806 202.217C160.043 205.036 159.883 208.13 164.001 210.14C170.931 213.522 226.372 232.125 226.372 232.125L239.92 217.56C239.92 217.56 226.814 213.443 212.788 209.558Z" fill="#FFA98F"/>
</g>
<path d="M303.842 221.402C288.444 221.12 248.872 243.939 241.471 244.215C234.069 244.491 200.741 241.194 188.781 240.367C176.82 239.54 156.477 239.025 154.614 235.158C151.397 228.479 171.397 225.532 181.078 225.263C190.76 224.987 217.261 225.802 222.671 223.608C228.082 221.408 303.842 206.292 303.842 206.292V221.408V221.402Z" fill="#FFA98F"/>
<g style="mix-blend-mode:multiply" opacity="0.4">
<path d="M222.671 223.602C219.399 224.932 209.669 224.968 199.363 224.84C199.534 230.453 202.053 232.646 208.505 233.124C227.384 233.694 231.869 228.296 255.907 224.454C270.319 222.15 290.122 218.688 303.842 218.216V206.286C303.842 206.286 228.082 221.402 222.671 223.602Z" fill="#FFA98F"/>
</g>
<path d="M375 194.08C375 194.08 301.851 179.907 291.593 180.183C281.342 180.459 257.132 194.748 247.733 200.796C238.333 206.843 215.864 213.927 209.571 215.912C199.877 218.97 196.501 228.939 205.331 231.139C214.161 233.339 231.501 228.553 238.052 226.078C244.602 223.608 291.881 219.754 303.842 221.408C315.803 223.057 375 251.942 375 251.942V194.086V194.08Z" fill="#FFA98F"/>
<g style="mix-blend-mode:screen" opacity="0.3">
<path d="M216.464 218.308L218.725 229.57C206.324 232.419 203.854 230.214 202.996 227.205C201.072 220.471 216.464 218.308 216.464 218.308Z" fill="#FFA98F"/>
</g>
<path d="M108.119 202.665C74.712 188.081 55.5147 166.035 55.4534 142.18C55.4105 124.729 66.201 109.104 83.6152 101.396C107.849 90.667 139.35 108.142 172.702 126.641C191.305 136.96 210.539 147.628 229.375 153.97C244.461 159.049 261.054 160.232 276.109 157.309C290.754 154.46 302.42 148.051 308.952 139.264C318.021 127.07 316.403 111.592 304.283 94.5089L309.939 90.4954C323.768 109.981 325.392 128.767 314.522 143.394C306.955 153.571 293.787 160.924 277.439 164.104C261.225 167.254 243.37 165.986 227.169 160.532C207.733 153.988 188.217 143.161 169.344 132.695C137.543 115.054 107.506 98.3937 86.4215 107.726C71.5563 114.307 62.3468 127.499 62.3836 142.156C62.4387 163.136 80.1164 182.873 110.888 196.304L108.113 202.658L108.119 202.665Z" fill="#DCECFF"/>
<g style="mix-blend-mode:multiply" opacity="0.4">
<g style="mix-blend-mode:multiply" opacity="0.5">
<path d="M309.939 90.4954L304.283 94.5089C307.849 99.5334 310.496 104.417 312.243 109.123C311.103 104.576 311.66 100.354 314.032 96.868C312.812 94.754 311.452 92.6339 309.939 90.5015V90.4954Z" fill="#1285AD"/>
</g>
</g>
<g style="mix-blend-mode:multiply" opacity="0.4">
<path d="M84.8773 189.754C91.5929 194.503 99.3625 198.841 108.119 202.658L110.894 196.304C99.5525 191.353 89.9937 185.544 82.4324 179.129C84.0929 182.456 85.1714 185.986 84.8773 189.748V189.754Z" fill="#1285AD"/>
</g>
<g style="mix-blend-mode:multiply" opacity="0.4">
<path d="M278.462 158.277C293.106 155.428 304.773 149.019 311.305 140.232C320.367 128.038 317.892 110.839 305.772 93.7552L304.424 94.705C316.544 111.788 318.162 127.26 309.093 139.454C302.561 148.241 290.894 154.65 276.25 157.499C261.195 160.428 244.602 159.239 229.516 154.16C229.013 153.988 228.511 153.804 228.008 153.633C229.246 154.08 230.484 154.521 231.722 154.938C246.807 160.017 263.401 161.2 278.456 158.277H278.462Z" fill="#1285AD"/>
</g>
<g style="mix-blend-mode:multiply" opacity="0.4">
<path d="M57.8002 143.155C57.7573 125.704 68.5477 110.079 85.9619 102.37C97.7083 97.1744 111.158 98.5959 125.698 103.553C110.312 97.9832 96.0967 96.1388 83.7622 101.598C66.348 109.307 55.5514 124.938 55.6004 142.383C55.6617 166.237 74.859 188.283 108.266 202.867L108.346 202.689C76.2561 188.106 57.8614 166.5 57.8063 143.161L57.8002 143.155Z" fill="#1285AD"/>
</g>
<path d="M122.518 196.574C122.929 206.384 115.306 214.674 105.49 215.079C95.68 215.489 87.3895 207.867 86.9851 198.057C86.5746 188.247 94.1971 179.956 104.013 179.546C113.823 179.135 122.108 186.758 122.518 196.574Z" fill="#FF865C"/>
<g style="mix-blend-mode:multiply" opacity="0.25">
<path d="M120.233 196.672C120.588 205.22 113.946 212.444 105.398 212.799C96.8503 213.155 89.6261 206.513 89.2707 197.965C88.9153 189.411 95.5574 182.193 104.105 181.837C112.653 181.482 119.877 188.124 120.233 196.672Z" fill="#FF865C"/>
</g>
<g style="mix-blend-mode:multiply" opacity="0.25">
<path d="M104.105 181.837C95.5574 182.193 88.9153 189.417 89.2707 197.965C89.6261 206.513 96.8503 213.155 105.398 212.799C113.946 212.444 120.588 205.22 120.233 196.672C119.877 188.124 112.653 181.482 104.105 181.837ZM104.638 211.788C96.6604 212.119 89.9263 205.924 89.5954 197.953C89.2645 189.981 95.4594 183.247 103.431 182.91C111.409 182.579 118.143 188.774 118.474 196.745C118.805 204.723 112.61 211.457 104.638 211.788Z" fill="#FF865C"/>
</g>
<g style="mix-blend-mode:multiply" opacity="0.25">
<path d="M116.017 197.272C116.268 203.247 111.624 208.296 105.643 208.547C99.669 208.798 94.62 204.154 94.3688 198.173C94.1176 192.199 98.7622 187.15 104.743 186.899C110.717 186.647 115.766 191.292 116.017 197.272Z" fill="#FF865C"/>
</g>
<path d="M115.086 196.85C115.325 202.573 110.876 207.407 105.153 207.653C99.43 207.891 94.5955 203.443 94.3565 197.72C94.1175 191.997 98.566 187.162 104.289 186.923C110.012 186.684 114.847 191.133 115.086 196.856V196.85Z" fill="white"/>
<g style="mix-blend-mode:screen" opacity="0.4">
<path d="M111.391 196.562C111.575 201.029 108.106 204.809 103.633 204.993C99.1603 205.177 95.3858 201.709 95.202 197.236C95.0182 192.763 98.4863 188.988 102.959 188.804C107.432 188.614 111.207 192.089 111.391 196.562Z" fill="#1285AD"/>
</g>
<path d="M321.176 55.9611L316.042 57.254C313.113 45.6425 304.859 14.3312 301.887 8.9697C298.701 3.21602 286.636 5.51994 282.261 6.89249L280.668 1.84347C281.477 1.58612 300.588 -4.29623 306.52 6.4023C310.368 13.3447 320.086 51.6168 321.182 55.9611H321.176Z" fill="#DCECFF"/>
<path d="M266.961 86.0224C263.86 82.7932 236.538 54.2761 232.69 47.3398C226.758 36.6413 241.869 23.553 242.512 23.0016L245.95 27.0273C242.469 30.0114 234.124 39.0248 237.316 44.7724C240.288 50.1339 262.475 73.7185 270.778 82.3582L266.961 86.0285V86.0224Z" fill="#DCECFF"/>
<g style="mix-blend-mode:multiply" opacity="0.4">
<path d="M262.61 81.4574C264.767 83.7307 266.348 85.379 266.961 86.0162L270.778 82.3459C268.566 80.042 265.361 76.6719 261.795 72.8729C262.892 75.6792 263.388 78.7307 262.604 81.4574H262.61Z" fill="#1285AD"/>
</g>
<g style="mix-blend-mode:multiply" opacity="0.4">
<path d="M245.962 27.0518L245.76 26.8128C241.967 30.2197 233.027 39.9623 236.091 45.4893C238.977 50.6915 261.176 73.7981 270.086 83.0628L270.79 82.3827C262.494 73.7491 240.306 50.1646 237.334 44.7969C234.142 39.0432 242.488 30.0359 245.968 27.0457L245.962 27.0518Z" fill="#1285AD"/>
</g>
<g style="mix-blend-mode:multiply" opacity="0.4">
<path d="M319.608 49.8582C320.392 52.8913 320.956 55.1033 321.17 55.9673L316.036 57.2602C315.257 54.1597 314.093 49.6621 312.757 44.6254C314.553 47.0396 316.881 49.08 319.608 49.8582Z" fill="#1285AD"/>
</g>
<g style="mix-blend-mode:multiply" opacity="0.4">
<path d="M282.273 6.91701L282.175 6.61677C287.071 5.20133 300.073 2.78098 303.137 8.30794C306.023 13.5101 313.86 44.5763 317.004 57.0396L316.054 57.2785C313.125 45.667 304.871 14.3557 301.899 8.99422C298.707 3.24054 286.648 5.54446 282.273 6.91701Z" fill="#1285AD"/>
</g>
<path d="M308.229 96.6167C298.964 101.752 288.143 101.047 276.936 94.5763C268.872 89.9194 263.425 83.8962 263.192 83.6388L268.823 78.5898C269.007 78.792 287.794 99.3067 304.559 90.0052C321.391 80.667 313.885 53.9145 313.805 53.6449L321.072 51.5432C321.164 51.868 323.388 59.6805 323.07 68.9942C322.622 81.9292 317.494 91.4819 308.229 96.6167Z" fill="#FF865C"/>
<g style="mix-blend-mode:color-burn" opacity="0.3">
<path d="M306.133 91.4329C321.538 82.8913 316.667 57.542 315.668 53.0935L313.848 53.6204C313.928 53.89 321.434 80.6425 304.602 89.9807C287.831 99.2822 269.05 78.7736 268.866 78.5653C269.05 78.7675 287.996 101.494 306.133 91.4391V91.4329Z" fill="#FF865C"/>
</g>
<path d="M244.828 26.9599L242.255 23.7552C241.85 23.2528 241.863 22.5359 242.292 22.0457C244.02 20.0665 248.388 15.3729 250.386 16.1511C252.904 17.1315 255.901 21.6351 254.602 23.7552C253.566 25.4587 248.247 26.9047 246.176 27.4133C245.674 27.5359 245.147 27.3582 244.822 26.9538L244.828 26.9599Z" fill="#FF865C"/>
<g style="mix-blend-mode:multiply" opacity="0.3">
<path d="M253.002 23.9697C249.62 25.428 245.03 24.7111 242.916 21.3533C242.684 21.6106 242.475 21.8496 242.291 22.0518C241.869 22.5359 241.856 23.2589 242.255 23.7614L244.828 26.966C245.153 27.3704 245.68 27.5481 246.182 27.4256C248.253 26.917 253.566 25.4709 254.608 23.7675C254.773 23.4979 254.871 23.1854 254.902 22.8484C254.344 23.3202 253.621 23.6327 253.002 23.9758V23.9697Z" fill="#FF865C"/>
</g>
<path d="M283.094 5.74678L281.74 1.8681C281.526 1.26148 280.913 0.88771 280.276 0.991876C277.684 1.40854 271.385 2.62791 270.986 4.73575C270.484 7.39506 272.72 12.3154 275.202 12.3399C277.194 12.3583 281.238 8.62055 282.77 7.13158C283.137 6.77006 283.266 6.23085 283.094 5.74065V5.74678Z" fill="#FF865C"/>
<g style="mix-blend-mode:multiply" opacity="0.3">
<path d="M276.225 11.0959C279.252 9.00033 281.072 4.72949 279.35 1.15106C279.694 1.08979 280.006 1.03464 280.276 0.991748C280.913 0.887582 281.532 1.25523 281.74 1.86797L283.094 5.74665C283.266 6.23685 283.137 6.77606 282.769 7.13758C281.244 8.62655 277.194 12.3643 275.202 12.3459C274.883 12.3459 274.571 12.2601 274.265 12.1069C274.957 11.8864 275.606 11.4329 276.225 11.0898V11.0959Z" fill="#FF865C"/>
</g>
<path d="M301.477 131.249C301.477 131.249 258.211 184.294 188.523 184.294C118.836 184.294 73.6948 131.249 73.6948 131.249C73.6948 131.249 122.016 78.2038 188.523 78.2038C255.031 78.2038 301.477 131.249 301.477 131.249Z" fill="#094677"/>
<path d="M296.52 131.249C296.52 131.249 251.409 179.19 188.431 179.19C125.453 179.19 78.9277 131.249 78.9277 131.249C78.9277 131.249 128.333 83.3141 188.431 83.3141C248.529 83.3141 296.52 131.249 296.52 131.249Z" fill="white"/>
<path opacity="0.3" d="M188.291 83.3141C128.192 83.3141 78.7868 131.249 78.7868 131.249C78.7868 131.249 125.313 179.19 188.291 179.19C251.268 179.19 296.379 131.249 296.379 131.249C296.379 131.249 248.395 83.3141 188.291 83.3141ZM188.235 177.481C130.264 177.481 87.4388 133.357 87.4388 133.357C87.4388 133.357 132.917 93.2283 188.235 93.2283C243.554 93.2283 287.727 133.357 287.727 133.357C287.727 133.357 246.207 177.481 188.235 177.481Z" fill="#1285AD"/>
<path d="M236.366 131.249C236.366 157.726 214.902 179.19 188.431 179.19C161.961 179.19 140.496 157.726 140.496 131.249C140.496 104.772 161.955 83.3141 188.431 83.3141C214.908 83.3141 236.366 104.779 236.366 131.249Z" fill="#094677"/>
<path d="M234.112 131.249C234.112 156.482 213.658 176.929 188.431 176.929C163.205 176.929 142.751 156.476 142.751 131.249C142.751 106.022 163.205 85.569 188.431 85.569C213.658 85.569 234.112 106.022 234.112 131.249Z" fill="#1285AD"/>
<path d="M226.458 131.249C226.458 152.254 209.436 169.276 188.431 169.276C167.426 169.276 150.404 152.248 150.404 131.249C150.404 110.25 167.426 93.2222 188.431 93.2222C209.436 93.2222 226.458 110.25 226.458 131.249Z" fill="#094677"/>
<g style="mix-blend-mode:multiply">
<path d="M213.854 131.249C213.854 145.759 202.096 157.517 187.586 157.517C173.076 157.517 161.317 145.759 161.317 131.249C161.317 116.739 173.076 104.981 187.586 104.981C202.096 104.981 213.854 116.739 213.854 131.249Z" fill="#094677"/>
</g>
<path opacity="0.4" d="M249.167 147.873C249.167 154 236.434 158.976 220.729 158.976C205.025 158.976 192.292 154.006 192.292 147.873C192.292 141.739 205.025 136.77 220.729 136.77C236.434 136.77 249.167 141.739 249.167 147.873Z" fill="white"/>
<path d="M173.033 117.101C173.033 120.796 170.037 123.792 166.342 123.792C162.647 123.792 159.651 120.796 159.651 117.101C159.651 113.406 162.647 110.41 166.342 110.41C170.037 110.41 173.033 113.406 173.033 117.101Z" fill="white"/>
</svg>
