<svg width="269" height="219" viewBox="0 0 269 219" fill="none" xmlns="http://www.w3.org/2000/svg">
<path d="M0.295388 145.944C-3.67051 106.803 33.1258 93.936 60.9467 72.3957C96.9231 44.534 96.1627 31.6667 119.779 14.3356C166.326 -19.8324 238.816 9.96159 242.767 73.1596C248.074 158.138 162.077 224.976 66.4781 215.014C28.0417 211.015 3.72454 179.723 0.295388 145.959V145.944Z" fill="#B8DAE6"/>
<path d="M215.783 172.792C210.206 172.792 203.775 171.803 196.489 169.809L196.609 169.359C213.01 173.857 225.093 173.257 232.529 167.575C239.665 162.133 239.755 153.798 239.755 153.708V153.558L239.89 153.498C247.61 149.675 251.943 145.073 252.752 139.826C253.892 132.465 247.595 126.319 247.535 126.259L247.34 126.079L247.55 125.914C247.715 125.779 263.861 112.661 263.066 104.746C262.887 102.962 261.837 101.568 259.933 100.578L260.158 100.158C262.212 101.223 263.351 102.752 263.546 104.701C264.326 112.466 250.024 124.505 248.06 126.124C249.124 127.233 254.281 133.05 253.232 139.916C252.408 145.298 248.03 150.005 240.249 153.888C240.204 155.057 239.635 162.793 232.844 167.98C228.601 171.218 222.904 172.837 215.798 172.837L215.783 172.792Z" fill="#FF7391"/>
<path d="M233.278 120.967L232.813 120.862L236.127 106.29C236.157 106.155 239.23 93.7121 234.972 90.1592C233.383 88.8249 230.909 88.9149 227.626 90.399L227.162 90.6089L227.312 90.1142C227.356 89.9493 232.004 74.0733 227.596 67.6719C226.502 66.0828 224.913 65.2133 222.889 65.0634L222.919 64.5987C225.093 64.7636 226.802 65.708 227.971 67.4171C232.124 73.4287 228.661 86.981 227.896 89.7694C231.119 88.4052 233.608 88.4052 235.272 89.7994C239.754 93.5472 236.711 105.87 236.591 106.395L233.278 120.967Z" fill="#6380C1"/>
<path d="M224.763 92.4079C224.763 92.4079 232.034 67.9418 220.131 67.0573C208.228 66.1728 212.2 82.2736 212.2 82.2736C212.2 82.2736 205.814 82.9333 206.683 94.4018C206.683 94.4018 196.549 88.4501 193.236 106.53C189.923 124.61 195.44 142.24 195.44 142.24L230.28 123.14L233.593 108.569C233.593 108.569 239.32 85.7966 224.763 92.4229V92.4079Z" fill="#4F77BF"/>
<path d="M202.86 138.417L202.411 138.177C215.378 113.621 217.882 74.7029 217.897 74.3131L218.407 74.3431C218.377 74.7329 215.873 113.756 202.86 138.417Z" fill="#0E6D99"/>
<path d="M211.841 113.816L211.676 113.336C211.796 113.291 224.194 108.839 228.721 98.7493L229.186 98.9592C224.568 109.258 211.96 113.771 211.841 113.816Z" fill="#0E6D99"/>
<path d="M208.752 123.305C202.186 115.24 202.381 100.278 202.381 100.129H202.89C202.89 100.278 202.711 115.06 209.157 122.976L208.752 123.305Z" fill="#0E6D99"/>
<path d="M221.66 108.194L221.195 107.969C222.874 104.371 221.195 98.9891 221.195 98.9292L221.69 98.7793C221.765 99.0041 223.444 104.401 221.69 108.194H221.66Z" fill="#0E6D99"/>
<path d="M215.393 96.1857C211.96 94.8215 211.511 88.0903 211.496 87.8055L212.005 87.7755C212.005 87.7755 212.455 94.4617 215.588 95.706L215.393 96.1857Z" fill="#0E6D99"/>
<path d="M217.642 81.7939L217.328 81.3891C217.328 81.3891 221.39 78.121 221.945 74.2982L222.455 74.3731C221.87 78.3908 217.822 81.659 217.642 81.7939Z" fill="#0E6D99"/>
<path d="M193.236 169.584C193.236 169.584 186.175 117.549 218.377 128.133C218.377 128.133 221.9 104.326 239.095 109.168C239.095 109.168 244.822 94.1769 256.74 100.353C268.658 106.53 244.387 126.079 244.387 126.079C244.387 126.079 260.728 141.79 236.681 153.708C236.681 153.708 236.681 181.487 193.236 169.584Z" fill="#FFA98F"/>
<path d="M193.341 169.809L193.116 169.344C193.446 169.179 226.352 153.019 246.786 110.817L247.25 111.042C226.727 153.408 193.671 169.644 193.341 169.809Z" fill="#294575"/>
<path d="M208.437 159.42C205.349 150.485 211.915 140.216 211.99 140.111L212.425 140.396C212.365 140.501 205.934 150.56 208.932 159.255L208.437 159.42Z" fill="#294575"/>
<path d="M222.305 148.011C221.81 148.011 221.51 148.011 221.42 148.011V147.502C221.6 147.502 237.971 147.981 243.068 140.141L243.503 140.426C238.885 147.532 225.858 148.041 222.305 148.041V148.011Z" fill="#294575"/>
<path d="M242.543 119.827L242.423 119.333C242.498 119.318 250.398 117.264 252.527 110.862L253.022 111.027C250.803 117.699 242.633 119.812 242.558 119.842L242.543 119.827Z" fill="#294575"/>
<path d="M227.611 151.324C224.793 151.324 222.904 150.965 222.859 150.95L222.949 150.485C223.054 150.5 233.818 152.539 242.348 146.707L242.618 147.097C237.506 150.59 231.629 151.309 227.611 151.309V151.324Z" fill="white"/>
<path d="M225.393 119.273L225.003 119.003C225.003 119.003 230.04 112.107 238.526 111.402L238.571 111.867C230.31 112.556 225.438 119.213 225.393 119.273Z" fill="white"/>
<path d="M259.002 73C259.002 73 258.624 61 268.993 61C268.993 61 269.632 71.0068 259.002 73Z" fill="#4F77BF"/>
<path d="M212.002 175C212.002 175 211.662 163 220.993 163C220.993 163 221.568 173.007 212.002 175Z" fill="#4F77BF"/>
<path d="M201 27V172.497C167.895 203.048 118.872 220.35 67 215.053V27H201Z" fill="white"/>
<path d="M179.002 155C179.002 155 178.587 142 189.992 142C189.992 142 190.695 152.841 179.002 155Z" fill="#4F77BF"/>
<path d="M228.002 72C228.002 72 227.624 59 237.993 59C237.993 59 238.632 69.8407 228.002 72Z" fill="#FF7391"/>
<path d="M97.0017 79C97.0017 79 96.6242 66 106.993 66C106.993 66 107.632 76.8407 97.0017 79Z" fill="#FF7391"/>
<path d="M180.002 102C180.002 102 179.587 89 190.992 89C190.992 89 191.695 99.8407 180.002 102Z" fill="#FF7391"/>
<path d="M131.216 53.8198V59.3666H139.612V64.7186H131.216V70.2654H141.935V75.6324H125.849V48.4678H141.935V53.8198H131.216Z" fill="#323847"/>
<path d="M115.056 92.7227V97.3251H122.042V101.778H115.056V110.847H110.603V88.2702H123.976V92.7227H115.056Z" fill="#323847"/>
<path d="M142.97 88.2702V110.847H147.422V101.793H150.421C154.154 101.793 157.182 98.7643 157.182 95.0314C157.182 91.2985 154.154 88.2702 150.421 88.2702H142.97ZM150.81 97.3401H147.422V92.7377H150.81C152.085 92.7377 153.119 93.7721 153.119 95.0464C153.119 96.3207 152.085 97.3551 150.81 97.3551V97.3401Z" fill="#323847"/>
<path d="M116.435 122.871V126.783H112.027V142.734H108.115V126.783H103.707V122.871H116.435Z" fill="#323847"/>
<path d="M164.078 126.783L155.263 138.807H164.078V142.734H151.35V138.807L160.15 126.783H151.35V122.871H164.078V126.783Z" fill="#323847"/>
<path d="M134.335 122.811C129.822 122.811 126.149 127.263 126.149 132.765C126.149 138.267 129.807 142.719 134.335 142.719C138.862 142.719 142.52 138.267 142.52 132.765C142.52 127.263 138.862 122.811 134.335 122.811ZM134.335 139.661C131.846 139.661 129.807 136.573 129.807 132.765C129.807 128.957 131.846 125.854 134.335 125.854C136.823 125.854 138.862 128.942 138.862 132.765C138.862 136.588 136.838 139.661 134.335 139.661Z" fill="#323847"/>
<path d="M115.355 182.012V184.186H118.639V186.285H115.355V188.443H119.553V190.542H113.257V179.913H119.553V182.012H115.355Z" fill="#323847"/>
<path d="M150.15 181.907V184.156H153.554V186.315H150.15V190.707H147.992V179.748H154.483V181.907H150.15Z" fill="#323847"/>
<path d="M95.7615 179.718V190.752H97.9352V186.33H99.4044C101.233 186.33 102.703 184.845 102.703 183.031C102.703 181.203 101.218 179.733 99.4044 179.733H95.7615V179.718ZM99.5993 184.141H97.9502V181.892H99.5993C100.214 181.892 100.724 182.402 100.724 183.016C100.724 183.631 100.214 184.141 99.5993 184.141Z" fill="#323847"/>
<path d="M134.335 179.778C131.831 179.778 129.807 182.222 129.807 185.22C129.807 188.219 131.831 190.662 134.335 190.662C136.838 190.662 138.862 188.219 138.862 185.22C138.862 182.222 136.838 179.778 134.335 179.778ZM134.335 188.998C132.955 188.998 131.831 187.304 131.831 185.22C131.831 183.136 132.955 181.442 134.335 181.442C135.714 181.442 136.838 183.136 136.838 185.22C136.838 187.304 135.714 188.998 134.335 188.998Z" fill="#323847"/>
<path d="M164.063 179.419V190.542H167.916C170.179 190.542 172.023 188.698 172.023 186.435V183.526C172.023 181.262 170.179 179.419 167.916 179.419H164.063ZM167.991 188.338H166.266V181.607H167.991C169.01 181.607 169.834 182.432 169.834 183.451V186.51C169.834 187.529 169.01 188.353 167.991 188.353V188.338Z" fill="#323847"/>
<path d="M141.096 156.497V159.42H145.533V162.253H141.096V165.192H146.777V168.025H138.262V153.663H146.777V156.497H141.096Z" fill="#323847"/>
<path d="M118.399 153.663V168.025H121.202V162.133H123.076C125.415 162.133 127.319 160.229 127.319 157.891C127.319 155.552 125.415 153.648 123.076 153.648H118.399V153.663ZM123.316 159.345H121.187V156.452H123.316C124.11 156.452 124.755 157.096 124.755 157.891C124.755 158.685 124.11 159.33 123.316 159.33V159.345Z" fill="#323847"/>
<path d="M157.287 153.663V168.01H162.249C165.172 168.01 167.556 165.641 167.556 162.703V158.955C167.556 156.032 165.187 153.648 162.249 153.648H157.287V153.663ZM162.354 165.177H160.12V156.497H162.354C163.658 156.497 164.723 157.561 164.723 158.865V162.808C164.723 164.112 163.658 165.177 162.354 165.177Z" fill="#323847"/>
<path d="M108.399 165.341V168.055H100.229V153.663H102.957V165.341H108.399Z" fill="#323847"/>
<path d="M67.0526 144.173H66.5879V188.668H67.0526V144.173Z" fill="#AFC3EF"/>
<path d="M67.0676 45.7843H66.5879V27.6146H121.457V28.0944H67.0676V45.7843Z" fill="#AFC3EF"/>
<path d="M67.0526 51.1213H66.5879V69.0511H67.0526V51.1213Z" fill="#AFC3EF"/>
<path d="M86.0469 216.028C79.6305 216.028 73.1542 215.698 66.6629 215.023H66.453V195.399H66.9177V214.574C117.109 219.716 165.862 204.454 200.717 172.657V160.349H201.182V172.867L201.107 172.942C184.376 188.219 163.568 200.152 140.931 207.453C123.196 213.164 104.801 216.043 86.0469 216.043V216.028Z" fill="#AFC3EF"/>
<path d="M86.5418 218.951C84.8327 218.951 83.1237 218.921 81.4147 218.876V218.411C115.595 219.356 148.532 210.886 176.656 193.945L176.896 194.35C150.106 210.496 118.953 218.951 86.5268 218.951H86.5418Z" fill="#AFC3EF"/>
</svg>
